<?xml version="1.0" standalone="no"?>
<!DOCTYPE svg PUBLIC "-//W3C//DTD SVG 20010904//EN"
 "http://www.w3.org/TR/2001/REC-SVG-20010904/DTD/svg10.dtd">
<svg version="1.0" xmlns="http://www.w3.org/2000/svg"
 width="736.000000pt" height="722.000000pt" viewBox="0 0 736.000000 722.000000"
 preserveAspectRatio="xMidYMid meet">
<metadata>
Created by potrace 1.16, written by Peter Selinger 2001-2019
</metadata>
<g transform="translate(0.000000,722.000000) scale(0.100000,-0.100000)"
fill="#000000" stroke="none">
<path d="M5056 6536 c-34 -45 -35 -83 -1 -92 14 -3 25 -10 25 -15 0 -5 9 -9
20 -9 23 0 110 75 110 95 0 21 -37 47 -58 40 -11 -3 -23 -1 -27 5 -12 20 -43
9 -69 -24z"/>
<path d="M2710 6035 c-8 -10 -10 -28 -6 -53 4 -20 8 -46 9 -56 1 -11 8 -21 15
-22 7 -1 8 0 2 3 -19 9 -10 21 20 25 33 5 38 -3 15 -22 -11 -9 -15 -26 -12
-54 4 -47 24 -57 63 -31 32 21 30 65 -3 80 -18 7 -23 18 -23 45 0 50 -10 79
-25 74 -7 -3 -19 2 -28 10 -13 14 -16 14 -27 1z"/>
<path d="M2946 6001 c-22 -25 -20 -41 10 -72 15 -15 32 -38 38 -51 7 -13 22
-24 37 -26 25 -3 37 11 53 61 3 10 15 17 31 17 15 0 24 -4 20 -10 -3 -5 -13
-10 -20 -10 -20 0 -34 -31 -24 -55 4 -11 8 -32 8 -47 1 -18 10 -33 26 -44 27
-18 39 -13 56 19 11 22 11 22 -10 -1 -18 -18 -26 -20 -41 -12 -30 16 -25 47 7
53 16 3 31 0 35 -5 12 -20 2 67 -10 89 -7 13 -25 29 -41 38 -16 8 -31 21 -35
30 -5 13 -10 14 -27 5 -17 -10 -25 -8 -42 8 -33 29 -53 33 -71 13z"/>
<path d="M3010 5806 c-6 -8 -10 -27 -8 -42 3 -26 2 -27 -49 -27 -46 1 -53 -2
-53 -18 0 -24 -27 -36 -48 -22 -23 14 -25 29 -7 47 14 14 14 16 1 16 -8 0 -17
-9 -21 -20 -7 -22 10 -60 28 -60 6 0 1 -7 -11 -16 -23 -16 -28 -40 -12 -64 7
-11 8 -6 4 17 -5 26 -3 34 11 39 19 8 46 -5 52 -23 2 -6 -3 -18 -12 -26 -23
-24 -18 -32 18 -32 28 0 32 -3 32 -25 0 -20 -6 -26 -28 -28 -22 -3 -30 1 -34
17 -6 25 -12 26 -41 5 -38 -26 -23 -74 24 -74 12 0 24 -7 28 -15 7 -19 50 -19
66 0 8 9 9 25 5 42 -5 16 -7 36 -6 46 3 22 -27 59 -41 51 -5 -3 -6 5 -3 19 5
18 1 31 -13 45 -19 19 -19 19 0 31 15 9 22 9 34 -4 9 -8 22 -15 30 -15 8 0 23
-5 34 -12 31 -20 72 8 68 46 -1 17 -11 37 -20 44 -21 15 -23 43 -6 60 8 8 8
12 1 12 -6 0 -16 -7 -23 -14z"/>
<path d="M3127 5498 c-9 -5 -18 -21 -18 -36 -1 -21 -2 -22 -6 -7 -7 28 -23 45
-42 44 -11 0 -9 -3 7 -9 15 -6 22 -18 22 -35 0 -17 -8 -29 -22 -35 -20 -9 -20
-10 -3 -7 16 2 22 -6 30 -38 8 -33 15 -41 37 -43 21 -3 29 -10 34 -30 10 -47
13 -52 36 -62 18 -7 27 -4 45 15 19 22 24 23 47 11 14 -7 34 -24 45 -37 10
-13 22 -21 26 -17 4 3 -3 16 -14 27 -24 24 -30 51 -7 32 11 -9 12 -6 8 14 -2
14 2 33 9 43 11 14 11 15 0 5 -7 -6 -19 -22 -25 -35 -25 -51 -70 -23 -49 32
10 26 9 26 -31 24 -33 -1 -42 -6 -46 -24 -5 -20 -8 -18 -33 21 -31 48 -30 87
3 96 34 9 22 40 -21 55 -8 3 -23 2 -32 -4z"/>
<path d="M3246 5151 c-6 -10 -6 -97 1 -123 2 -10 10 -18 18 -18 7 0 15 -7 19
-15 12 -31 76 -11 76 23 0 8 8 21 18 28 16 13 16 13 -1 14 -10 0 -20 7 -23 15
-3 8 -14 17 -25 20 -13 4 -19 16 -19 36 0 25 -4 29 -29 29 -17 0 -32 -4 -35
-9z"/>
<path d="M2188 5114 c29 -20 26 -58 -4 -62 -30 -4 -51 24 -36 48 10 16 9 18
-3 14 -8 -4 -15 -10 -15 -14 0 -4 -11 -5 -24 -3 -18 4 -32 -2 -50 -22 -32 -35
-57 -29 -69 15 l-10 35 -13 -30 c-21 -47 -18 -102 6 -115 11 -6 25 -8 32 -4 6
4 3 -7 -7 -23 -14 -23 -15 -34 -7 -49 6 -10 12 -14 12 -7 0 7 9 9 22 5 21 -5
21 -6 2 -14 -15 -7 -13 -7 6 -2 33 7 42 8 65 0 16 -5 16 -4 -2 5 -33 18 -36
38 -7 49 35 14 34 14 34 -20 0 -16 5 -30 11 -30 6 0 8 8 4 19 -3 11 1 26 10
35 20 20 29 20 45 1 18 -21 8 -48 -20 -56 -21 -6 -22 -7 -4 -8 41 -2 58 43 28
74 -12 11 -25 14 -48 9 -31 -6 -31 -6 -12 14 11 13 16 30 13 42 -4 16 0 20 22
20 49 0 68 42 33 73 -10 10 -23 17 -28 17 -4 0 2 -7 14 -16z"/>
<path d="M4398 4990 c-8 -12 -24 -20 -38 -20 -14 0 -31 -5 -38 -12 -18 -18
-15 -55 6 -70 21 -15 34 -55 21 -64 -13 -8 -11 -48 3 -62 21 -21 57 -14 70 13
10 21 8 29 -10 48 -13 14 -22 38 -24 67 -3 40 0 46 25 58 15 7 27 17 27 22 0
4 3 15 6 24 9 24 -33 20 -48 -4z"/>
<path d="M5456 4635 c-9 -9 -16 -21 -16 -26 0 -5 -8 -9 -19 -9 -36 0 -78 -21
-89 -45 -9 -19 -8 -23 3 -19 18 7 55 -13 55 -31 0 -34 42 -14 95 45 6 6 19 17
30 24 16 12 18 19 10 43 -12 33 -45 42 -69 18z"/>
<path d="M2246 4235 c8 -20 -13 -45 -37 -45 -24 0 -24 9 -1 26 15 12 15 12 -6
7 -12 -3 -30 1 -39 8 -14 12 -14 10 2 -14 10 -15 16 -30 13 -32 -7 -7 -48 7
-43 15 3 4 -7 11 -23 14 -15 4 -35 9 -45 12 -16 5 -18 1 -15 -23 3 -24 -1 -28
-24 -31 -24 -3 -28 0 -28 20 0 13 6 30 13 37 10 10 9 11 -5 6 -12 -5 -18 -18
-18 -36 0 -38 34 -54 67 -33 29 18 37 18 29 -2 -10 -25 11 -52 46 -60 28 -6
30 -8 13 -14 -18 -6 -16 -9 15 -22 51 -22 74 -51 61 -76 -6 -12 -21 -23 -33
-25 -23 -4 -23 -4 -1 -6 27 -1 53 24 53 50 0 11 5 17 10 14 18 -11 11 -54 -11
-65 -11 -7 -18 -14 -16 -17 3 -2 15 1 27 7 19 10 22 18 17 51 -5 40 7 51 31
27 8 -8 8 -17 1 -30 -8 -14 -6 -26 6 -44 8 -13 20 -24 26 -24 23 0 49 22 49
42 0 17 3 19 12 10 7 -7 19 -12 27 -12 8 0 22 -7 31 -15 16 -14 21 -14 51 -1
19 8 46 17 61 21 62 12 54 85 -9 85 -27 0 -36 7 -62 50 -17 28 -37 50 -44 50
-20 0 -80 -31 -93 -48 -9 -13 -15 -13 -42 -1 -26 11 -32 21 -42 71 -7 32 -17
61 -21 64 -5 3 -6 -2 -3 -11z"/>
<path d="M3068 3909 c31 -34 -1 -74 -41 -50 -17 11 -19 11 -14 -3 3 -8 1 -18
-5 -22 -6 -4 -8 -3 -4 4 3 6 2 13 -3 16 -5 3 -11 -3 -14 -14 -8 -32 -37 -37
-59 -11 -21 27 -25 14 -3 -15 8 -10 15 -22 15 -25 0 -14 -32 -18 -53 -7 -20
10 -21 10 -8 -5 12 -15 9 -17 -30 -18 -81 -1 -177 -17 -185 -31 -3 -5 5 -6 20
-2 23 5 27 1 47 -45 20 -44 27 -52 58 -58 20 -4 42 -6 50 -4 7 1 10 -2 6 -8
-4 -7 12 -11 49 -11 30 0 57 4 60 9 3 5 25 5 48 0 35 -6 48 -4 68 10 27 20 39
73 21 95 -7 9 -7 16 1 24 15 15 48 16 48 2 0 -12 49 -13 67 -2 19 12 4 92 -17
92 -10 0 -34 7 -54 15 -20 9 -40 14 -44 11 -4 -2 -7 10 -7 26 0 19 -6 33 -15
36 -12 4 -13 2 -2 -9z"/>
<path d="M2513 3786 c25 -20 19 -60 -10 -64 -21 -3 -22 0 -16 30 l6 33 -21
-25 c-18 -22 -23 -24 -42 -12 -28 17 -38 7 -17 -16 10 -10 17 -28 17 -40 0
-12 10 -30 22 -41 16 -16 18 -21 7 -25 -8 -2 -21 -7 -29 -9 -8 -3 4 -5 28 -5
24 1 45 5 48 9 2 5 12 5 22 2 16 -6 16 -6 0 11 -15 14 -16 21 -7 39 11 20 12
19 23 -14 6 -19 17 -34 24 -33 6 1 21 2 32 3 25 1 37 45 19 67 -10 12 -23 14
-56 9 -40 -6 -58 5 -33 20 19 12 11 54 -12 65 -21 10 -22 10 -5 -4z"/>
<path d="M3586 3606 c-9 -14 -16 -29 -16 -34 0 -6 -12 -17 -26 -26 -33 -22
-29 -61 8 -89 45 -34 76 -16 99 58 26 83 22 109 -17 113 -24 2 -35 -3 -48 -22z"/>
<path d="M2515 3563 c-22 -4 -70 -67 -61 -81 3 -5 0 -9 -7 -10 -7 -1 -28 -3
-47 -5 -19 -2 -42 1 -50 7 -13 9 -13 9 -2 -5 19 -25 143 -35 128 -10 -3 4 18
5 46 4 61 -4 98 16 98 52 0 41 -43 61 -105 48z"/>
<path d="M3467 3452 c-3 -4 9 -7 26 -7 26 0 33 -5 35 -23 4 -28 -23 -40 -51
-22 -18 11 -23 10 -34 -6 -8 -11 -12 -27 -10 -36 3 -11 -3 -18 -18 -22 -37 -9
-75 -46 -75 -72 0 -18 -5 -24 -21 -24 -14 0 -26 -13 -40 -45 -11 -25 -22 -45
-25 -45 -11 0 -47 40 -41 46 3 4 -3 14 -14 23 -19 15 -19 18 -5 46 9 17 16 37
16 46 0 8 5 20 12 27 9 9 9 12 -1 12 -7 0 -15 -9 -18 -19 -4 -17 -9 -18 -34
-9 -22 7 -33 7 -44 -2 -19 -16 -19 -36 1 -44 24 -9 14 -50 -14 -54 -15 -2 -25
3 -30 19 -6 14 -11 18 -16 11 -4 -6 2 -20 13 -31 l21 -21 -24 -15 c-31 -20
-39 -41 -26 -66 7 -12 21 -19 38 -18 l27 1 -25 7 c-18 5 -25 14 -25 31 0 20 5
25 25 25 19 0 26 -6 28 -23 3 -17 8 -22 19 -18 9 4 22 -1 29 -11 10 -13 13
-13 9 -3 -7 21 29 65 45 55 7 -4 10 -20 8 -36 -3 -19 -1 -28 6 -26 6 3 23 -2
37 -9 15 -7 29 -10 33 -7 3 4 6 -3 6 -15 0 -11 -4 -24 -10 -27 -5 -3 -10 3
-10 13 0 27 -54 34 -92 13 -15 -9 -28 -19 -28 -24 0 -4 9 -2 20 5 16 11 23 10
37 -5 14 -13 15 -21 7 -35 -18 -28 -47 -20 -65 17 l-16 34 -5 -26 c-3 -15 -1
-24 3 -21 5 3 9 0 9 -6 0 -6 -11 -15 -24 -20 -14 -5 -32 -20 -41 -33 -8 -13
-26 -29 -40 -35 -14 -6 -25 -16 -25 -22 0 -7 7 -4 16 5 9 9 21 14 27 12 18 -6
31 -33 24 -51 -8 -21 -43 -21 -56 2 -6 9 -10 13 -11 7 0 -22 19 -38 51 -41 52
-6 61 -46 15 -64 -16 -7 -17 -9 -4 -9 25 -1 50 28 43 51 -6 18 9 48 25 48 4 0
10 -12 13 -27 4 -19 16 -32 36 -41 27 -12 29 -16 18 -33 -6 -10 -17 -19 -22
-19 -6 0 -20 -7 -31 -16 -19 -15 -19 -15 1 -5 12 6 26 6 37 0 19 -10 24 -44 8
-54 -5 -3 -10 -1 -10 5 0 13 -40 29 -57 23 -6 -3 -14 -11 -17 -19 -4 -11 -2
-11 13 -2 24 15 51 4 51 -22 0 -28 -25 -36 -54 -16 -22 14 -25 14 -30 -1 -5
-11 -10 -12 -19 -5 -9 8 -12 3 -12 -21 0 -29 -3 -32 -32 -35 -23 -2 -30 -7
-26 -18 6 -16 49 -19 58 -4 9 14 34 -2 48 -31 16 -31 50 -36 76 -10 21 21 30
58 11 46 -5 -3 -7 0 -4 8 3 8 0 18 -6 22 -19 11 7 33 34 28 29 -6 37 8 57 87
13 54 28 72 79 97 22 12 23 12 2 7 -15 -4 -29 1 -40 13 -9 10 -14 14 -9 9 10
-14 9 -44 -3 -51 -6 -3 -19 -4 -29 0 -18 5 -18 8 -3 55 9 28 21 50 28 50 7 0
21 3 31 6 16 6 16 5 -2 -10 -17 -13 -17 -15 -2 -10 9 3 25 0 35 -7 9 -7 14 -9
10 -5 -5 5 2 14 14 20 12 6 23 18 25 26 3 10 1 9 -7 -2 -14 -22 -43 -23 -61
-2 -11 14 -10 18 6 30 10 8 26 14 34 14 9 0 26 8 38 18 30 23 42 101 20 124
-15 14 -14 17 3 33 24 21 26 58 5 75 -18 15 -81 5 -88 -13 -2 -7 -4 0 -3 15 1
24 5 28 33 28 36 0 76 41 71 74 -2 11 7 30 19 42 23 23 39 83 29 109 -6 15
-61 21 -69 7z"/>
<path d="M5405 3251 c-32 -7 -61 -51 -51 -77 3 -8 19 -22 36 -32 16 -9 30 -24
30 -31 0 -12 3 -12 12 -3 7 7 21 12 33 12 16 0 17 -2 5 -10 -8 -5 -12 -11 -10
-14 3 -2 13 2 24 9 18 13 17 14 -5 19 -13 3 -33 7 -44 8 -25 4 -27 37 -3 51
13 9 21 7 36 -7 16 -13 21 -14 26 -4 5 10 7 10 12 1 3 -7 14 -13 24 -13 21 0
44 -25 35 -40 -3 -5 -17 -10 -30 -10 -15 0 -31 -10 -40 -24 -25 -38 -12 -66
33 -66 12 0 25 -6 28 -14 9 -22 32 -27 75 -16 70 19 63 98 -8 87 -19 -3 -31
-2 -28 3 3 4 -1 10 -9 13 -20 8 -8 59 13 55 11 -3 15 -12 13 -33 -3 -25 -1
-27 12 -16 13 11 20 10 42 -4 14 -9 28 -14 31 -12 10 11 -19 47 -38 47 -11 0
-33 10 -48 21 -16 12 -34 18 -40 14 -6 -3 -10 -3 -9 2 5 15 -35 64 -63 79 -29
15 -45 16 -94 5z"/>
<path d="M2142 3178 c-7 -7 -24 -12 -38 -13 -15 0 -32 -9 -40 -20 -28 -42 38
-88 75 -52 10 10 12 8 9 -8 -2 -11 -14 -25 -28 -32 l-25 -13 26 0 c14 0 30 -5
37 -12 7 -7 24 -12 39 -13 23 0 28 -6 34 -34 6 -29 3 -37 -19 -57 -35 -30 -52
-31 -45 -1 6 22 6 22 -14 -2 -18 -22 -23 -23 -50 -12 -17 7 -34 24 -40 41 -14
37 -26 38 -41 5 -13 -28 -23 -30 -55 -14 l-22 12 20 -24 c11 -13 26 -30 34
-36 13 -11 13 -13 -2 -13 -9 0 -17 5 -17 11 0 6 -7 9 -15 5 -38 -14 -62 32
-32 63 10 11 9 13 -3 9 -22 -7 -25 -59 -4 -75 16 -11 26 -43 26 -83 0 -12 8
-15 35 -12 23 3 39 0 44 -9 7 -10 9 -5 7 15 -2 18 2 31 11 34 10 3 12 0 8 -11
-6 -16 18 -27 60 -27 15 0 21 5 17 14 -4 11 -12 13 -29 6 -20 -8 -24 -5 -28
18 -7 33 6 48 23 27 7 -8 19 -15 26 -15 8 0 14 -4 14 -10 0 -18 49 -10 63 11
11 14 17 17 22 9 6 -9 10 -9 16 1 7 11 9 11 9 -2 0 -9 7 -23 17 -30 15 -13 15
-12 3 8 -11 17 -11 24 -1 37 11 13 15 13 27 2 7 -8 19 -17 26 -19 10 -4 8 -9
-4 -20 -10 -8 -18 -18 -18 -23 0 -4 5 -3 12 4 9 9 16 8 30 -5 21 -18 23 -44 7
-60 -7 -7 5 -4 25 5 20 9 36 22 36 29 0 7 5 13 10 13 6 0 18 8 29 19 16 16 17
21 3 46 -13 26 -13 29 6 44 27 22 42 54 42 88 -1 22 -3 25 -10 12 -6 -11 -19
-15 -37 -12 l-28 4 25 -13 c29 -16 33 -46 7 -62 -15 -9 -21 -7 -33 9 -8 11
-12 25 -10 32 3 7 -1 10 -9 7 -11 -5 -12 -10 -3 -24 14 -22 4 -50 -18 -50 -14
0 -15 7 -10 44 6 41 5 46 -23 65 -16 12 -35 21 -42 21 -8 0 -3 7 9 16 33 23
26 64 -12 83 -27 13 -31 12 -48 -9 -10 -13 -20 -21 -21 -19 -1 2 -11 22 -22
44 -21 42 -51 55 -73 33z"/>
<path d="M1734 3122 c-15 -9 -34 -47 -34 -66 0 -8 5 -27 12 -43 6 -15 10 -33
9 -39 -1 -7 13 -24 30 -38 31 -26 29 -31 -16 -38 -17 -3 -19 2 -17 29 2 17 -1
34 -7 38 -6 3 -11 14 -11 24 0 9 -14 36 -32 60 -28 39 -34 43 -64 38 -22 -4
-37 -1 -45 9 -6 8 -19 14 -28 13 -11 0 -10 -3 5 -9 45 -18 31 -80 -15 -65 -18
6 -22 13 -19 35 2 16 1 27 -4 24 -12 -8 -10 -48 4 -62 7 -7 22 -12 35 -12 13
0 23 -6 23 -15 0 -7 7 -18 16 -23 14 -8 12 -10 -9 -16 -37 -9 -44 -42 -17 -71
22 -23 24 -23 58 -10 42 18 42 18 42 0 0 -7 -7 -18 -16 -23 -9 -5 -14 -14 -10
-20 8 -13 46 5 46 21 0 4 -4 5 -10 2 -6 -4 -7 1 -3 11 4 11 8 13 11 6 2 -7 8
-9 14 -6 7 5 9 -2 6 -17 -5 -26 -5 -26 63 -20 25 2 59 40 59 67 0 16 5 24 13
22 20 -7 21 -41 1 -55 -10 -7 -12 -13 -6 -13 7 0 12 -11 12 -24 0 -24 18 -37
48 -35 10 1 6 4 -8 8 -35 10 -36 55 -1 59 27 4 43 -14 36 -43 -4 -17 -3 -16 6
3 10 18 9 26 -7 43 -10 11 -26 18 -36 16 -12 -3 -18 0 -18 11 0 8 -7 23 -16
33 -14 16 -14 18 5 24 40 12 37 50 -9 105 -23 28 -50 55 -60 60 -22 12 -22 12
-36 2z"/>
<path d="M2680 3051 c0 -6 -10 -16 -22 -22 -21 -8 -20 -9 5 -4 24 5 28 3 25
-12 -3 -19 -48 -32 -48 -14 0 6 -4 11 -8 11 -4 0 -8 -12 -7 -27 0 -34 -22 -42
-31 -9 -5 21 -9 23 -24 13 -10 -6 -17 -14 -14 -18 6 -10 -24 -19 -41 -13 -24
9 -18 -10 15 -46 33 -37 36 -56 15 -83 -16 -23 -9 -48 11 -40 11 4 12 9 5 16
-16 16 -13 27 4 21 8 -4 22 -1 30 6 9 7 18 10 21 7 13 -12 -7 -38 -36 -49 -17
-5 -35 -19 -41 -29 -5 -10 -19 -19 -29 -19 -20 0 -27 15 -11 24 11 7 22 46 12
46 -3 0 -11 -10 -16 -22 -13 -28 -29 -33 -48 -13 -17 16 -32 21 -23 6 3 -5 -9
-18 -28 -29 -25 -15 -34 -28 -39 -56 -3 -21 -4 -43 -1 -51 8 -19 43 -30 56
-17 6 6 19 6 38 -1 33 -12 60 3 60 33 0 13 6 17 23 14 21 -4 21 -4 -2 6 -31
14 -21 23 11 11 31 -12 68 10 68 40 0 10 5 19 11 19 8 0 7 5 -1 15 -18 22 -5
30 19 13 12 -8 18 -18 15 -21 -12 -11 17 -36 33 -30 12 5 14 3 8 -7 -6 -10 -4
-12 9 -7 30 12 59 -11 54 -42 -3 -19 0 -28 9 -28 10 0 12 9 8 29 -6 24 -4 28
17 28 39 0 52 15 45 49 -7 34 3 40 24 15 10 -13 10 -19 0 -36 -10 -16 -10 -19
1 -16 7 3 14 14 16 26 2 12 12 27 23 32 10 6 19 16 19 22 0 6 -8 4 -18 -5 -24
-22 -27 -21 -53 6 -12 12 -18 16 -14 8 6 -11 4 -13 -8 -8 -20 7 -35 -12 -17
-23 6 -4 10 -18 8 -31 -2 -18 -9 -24 -28 -24 -21 0 -26 6 -33 43 -9 47 -23 56
-22 15 0 -19 -6 -29 -19 -31 -28 -6 -42 14 -22 33 9 9 16 24 16 33 0 9 16 27
35 40 21 13 35 30 35 42 0 13 7 20 18 20 10 0 23 5 28 10 8 8 15 6 24 -5 7 -8
20 -15 29 -15 23 0 71 51 71 76 0 24 -29 54 -53 54 -9 0 -17 4 -17 9 0 17 -44
21 -61 5 -12 -11 -23 -12 -41 -5 -31 12 -58 -3 -59 -32 0 -18 -3 -16 -12 10
-13 35 -27 53 -27 34z"/>
<path d="M1048 2964 c9 -16 8 -25 -2 -39 -17 -23 -50 -16 -54 13 -3 16 -10 22
-29 22 -51 0 -122 -109 -80 -123 9 -3 9 -7 -1 -19 -7 -9 -10 -27 -6 -45 4 -18
1 -33 -5 -37 -19 -12 -49 4 -54 27 -3 15 -5 13 -4 -8 0 -16 -3 -42 -7 -56 -5
-18 -3 -26 6 -27 7 -1 24 -4 38 -7 21 -5 28 -1 40 21 8 16 24 37 34 48 18 18
19 18 33 1 12 -17 13 -17 13 -2 0 9 -5 17 -10 17 -7 0 -8 13 -5 34 4 20 2 36
-4 40 -7 5 -7 14 1 31 16 34 23 31 37 -15 10 -34 16 -40 40 -40 28 0 62 29 74
63 8 22 -9 57 -27 57 -9 0 -12 7 -9 18 2 10 -3 25 -13 33 -16 13 -16 12 -6 -7z"/>
<path d="M2207 2721 c5 -21 -29 -47 -47 -36 -6 3 -7 -1 -4 -9 7 -18 -18 -31
-42 -22 -15 6 -15 8 1 26 9 10 15 25 12 32 -4 9 -6 7 -6 -4 -1 -26 -42 -34
-58 -12 -7 10 -13 13 -13 6 0 -6 11 -19 25 -28 14 -9 23 -19 21 -22 -3 -2 -1
-12 4 -22 6 -12 5 -23 -5 -36 -14 -18 -14 -18 -15 8 0 15 -5 30 -11 34 -8 4
-7 9 2 15 24 15 -5 9 -41 -9 -42 -20 -51 -53 -21 -74 12 -8 18 -18 13 -23 -4
-4 2 -5 13 -1 16 6 17 5 8 -5 -16 -16 -60 12 -66 43 -4 20 -4 19 -6 -5 -1 -29
37 -77 62 -77 16 0 57 36 57 50 0 6 -5 10 -12 10 -6 0 -9 3 -5 6 3 3 16 -1 29
-10 31 -22 45 -20 73 8 13 14 32 26 41 28 9 2 23 13 31 25 14 20 13 24 -10 47
-18 17 -23 32 -20 50 3 14 1 26 -5 26 -6 0 -8 -9 -5 -19z"/>
<path d="M5194 2714 c-4 -15 -1 -36 7 -51 12 -22 11 -26 -4 -34 -22 -13 -22
-52 0 -70 15 -13 15 -12 2 9 -24 38 14 78 45 47 12 -12 13 -21 6 -36 -7 -11
-7 -19 -1 -19 13 0 51 63 51 84 0 10 5 14 10 11 19 -12 11 -55 -12 -66 -21 -9
-21 -9 4 -4 20 4 33 -1 52 -20 14 -14 31 -25 39 -25 15 0 37 20 37 34 0 5 -6
2 -13 -8 -19 -26 -57 -13 -57 19 0 32 38 45 57 19 7 -10 13 -13 13 -7 0 7 -7
18 -15 27 -8 8 -15 22 -15 31 0 15 -1 15 -16 0 -15 -15 -18 -15 -35 1 -27 25
-23 37 10 32 17 -2 27 0 24 5 -3 5 -23 6 -45 3 -30 -5 -39 -3 -36 6 3 7 15 15
29 19 22 6 22 7 3 8 -12 1 -27 -6 -34 -14 -12 -14 -15 -13 -35 5 -31 29 -63
26 -71 -6z"/>
</g>
</svg>
